<svg xmlns="http://www.w3.org/2000/svg" xmlns:xlink="http://www.w3.org/1999/xlink" width="1920.24" height="1024.108" viewBox="0 0 1920.24 1024.108">
  <defs>
    <linearGradient id="linear-gradient" x1="0.519" y1="0.473" x2="0.156" y2="0.78" gradientUnits="objectBoundingBox">
      <stop offset="0" stop-color="#67798c"/>
      <stop offset="1" stop-color="#2d3d55"/>
    </linearGradient>
  </defs>
  <path id="Path_36" data-name="Path 36" d="M1977.531,55.11l-1154.408.4s-2.057,5.632-2.154,6.35-.293,2.022-.423,3.032a178.328,178.328,0,0,0,5.365,70.195c14.47,48.676,50.37,91.314,96.74,124.323,13.885,9.921,28.551,19.018,42.045,29.259a450.514,450.514,0,0,1,38.4,32.637,381.275,381.275,0,0,1,60.678,73.573c32.517,52.48,48.776,111.423,39.379,170.233-8.78,55.379-41.1,111.583-90.4,150.577C970.191,749.34,915.2,768.385,857.03,775.248q-21.331,2.469-42.891,3.086c-24.461.778-48.957.37-73.359-1.224l-11.772-.745-17.82-1.091c-39.021-2.421-78.042-4.628-117.063-5.134-62.824-.638-133-18.092-275.64,51.65S73.549,1079.11,73.549,1079.11H1993.79V71.409c0-4.1,0-16.408,0-16.408l-16.259.108Z" transform="translate(-73.549 -55.002)" opacity="0.06" fill="url(#linear-gradient)"/>
</svg>
