<svg xmlns="http://www.w3.org/2000/svg" xmlns:xlink="http://www.w3.org/1999/xlink" width="1919.916" height="1129.512" viewBox="0 0 1919.916 1129.512">
  <defs>
    <linearGradient id="linear-gradient" x1="0.5" x2="0.5" y2="1" gradientUnits="objectBoundingBox">
      <stop offset="0" stop-color="#67798c"/>
      <stop offset="1" stop-color="#2d3d55"/>
    </linearGradient>
  </defs>
  <path id="Path_3" data-name="Path 3" d="M1977.772,58.11H789.811A261.432,261.432,0,0,0,782.385,93.1a20.723,20.723,0,0,1-.319,2.354c-.1.795-.287,2.236-.414,3.355a221.81,221.81,0,0,0,5.258,77.655C801.092,230.31,836.275,277.48,881.719,314c13.608,10.976,27.98,21.039,41.206,32.369a460.507,460.507,0,0,1,37.637,36.106,415.233,415.233,0,0,1,59.466,81.392c31.868,58.057,47.8,123.265,38.593,188.325-8.6,61.265-40.282,123.442-88.594,166.58-41.716,37.224-95.605,58.293-152.618,65.885q-20.9,2.731-42.034,3.414a657.248,657.248,0,0,1-71.9-1.354l-11.536-.824-17.464-1.206C636.237,882,597.994,879.562,559.752,879c-61.57-.706-123.363,3.443-182.766,18.715-4.844,1.265-9.561,2.589-14.5,3.972l-.7.206c-4.43,1.295-8.828,2.648-13.225,4.061l-2.454.794c-3.856,1.265-7.68,2.56-11.5,3.943l-3.187,1.148q-5.545,2-10.995,4.149l-2.868,1.118c-3.984,1.618-7.935,3.237-11.855,4.943l-1.211.53a407.877,407.877,0,0,0-39.9,20.157,695.521,695.521,0,0,0-96.211,68.474c-31.2,25.924-66.924,53.7-94.586,82.981v78.714c0,8.126,7.134,14.713,15.934,14.713H1977.772c8.8,0,15.934-6.587,15.934-14.713V58.11h-15.934Z" transform="translate(-73.79 -58.11)" opacity="0.16" fill="url(#linear-gradient)"/>
</svg>
